{
	"asset":{
		"generator":"Khronos glTF Blender I/O v4.3.47",
		"version":"2.0"
	},
	"scene":0,
	"scenes":[
		{
			"name":"Scene",
			"nodes":[
				0,
				1
			]
		}
	],
	"nodes":[
		{
			"mesh":0,
			"name":"Plane",
			"rotation":[
				0.7071068286895752,
				0,
				0,
				0.7071068286895752
			],
			"scale":[
				1.9165416955947876,
				1,
				1
			],
			"translation":[
				-0.0483318567276001,
				0.3070155382156372,
				0.3070155382156372
			]
		},
		{
			"mesh":1,
			"name":"Torus",
			"rotation":[
				-1,
				0,
				0,
				1.6292068494294654e-07
			],
			"scale":[
				0.21723850071430206,
				0.19819223880767822,
				0.19819223880767822
			],
			"translation":[
				-2.081453800201416,
				-0.3070155382156372,
				0.3070155382156372
			]
		}
	],
	"materials":[
		{
			"alphaMode":"BLEND",
			"doubleSided":true,
			"name":"Material.001",
			"pbrMetallicRoughness":{
				"baseColorFactor":[
					1,
					1,
					1,
					0.642201840877533
				],
				"baseColorTexture":{
					"index":0
				},
				"metallicFactor":0.6880733966827393,
				"roughnessFactor":0.9036697149276733
			}
		},
		{
			"doubleSided":true,
			"name":"Material.002",
			"pbrMetallicRoughness":{
				"baseColorFactor":[
					0.6088962554931641,
					0.2821038067340851,
					0.11729200929403305,
					1
				],
				"metallicFactor":0,
				"roughnessFactor":0.9311926364898682
			}
		}
	],
	"meshes":[
		{
			"name":"Plane",
			"primitives":[
				{
					"attributes":{
						"POSITION":0,
						"NORMAL":1,
						"TEXCOORD_0":2
					},
					"indices":3,
					"material":0
				}
			]
		},
		{
			"name":"Torus",
			"primitives":[
				{
					"attributes":{
						"POSITION":4,
						"NORMAL":5,
						"TEXCOORD_0":6
					},
					"indices":7,
					"material":1
				}
			]
		}
	],
	"textures":[
		{
			"sampler":0,
			"source":0
		}
	],
	"images":[
		{
			"mimeType":"image/jpeg",
			"name":"ENSPS-LOGO",
			"uri":"ENSPS-LOGO.jpg"
		}
	],
	"accessors":[
		{
			"bufferView":0,
			"componentType":5126,
			"count":384,
			"max":[
				1,
				0,
				1
			],
			"min":[
				-1,
				-0.05193077772855759,
				-1
			],
			"type":"VEC3"
		},
		{
			"bufferView":1,
			"componentType":5126,
			"count":384,
			"type":"VEC3"
		},
		{
			"bufferView":2,
			"componentType":5126,
			"count":384,
			"type":"VEC2"
		},
		{
			"bufferView":3,
			"componentType":5123,
			"count":1716,
			"type":"SCALAR"
		},
		{
			"bufferView":4,
			"componentType":5126,
			"count":4800,
			"max":[
				1.25,
				1.9474470615386963,
				1.250000238418579
			],
			"min":[
				-1.2500009536743164,
				-8.143765449523926,
				-1.25
			],
			"type":"VEC3"
		},
		{
			"bufferView":5,
			"componentType":5126,
			"count":4800,
			"type":"VEC3"
		},
		{
			"bufferView":6,
			"componentType":5126,
			"count":4800,
			"type":"VEC2"
		},
		{
			"bufferView":7,
			"componentType":5123,
			"count":7284,
			"type":"SCALAR"
		}
	],
	"bufferViews":[
		{
			"buffer":0,
			"byteLength":4608,
			"byteOffset":0,
			"target":34962
		},
		{
			"buffer":0,
			"byteLength":4608,
			"byteOffset":4608,
			"target":34962
		},
		{
			"buffer":0,
			"byteLength":3072,
			"byteOffset":9216,
			"target":34962
		},
		{
			"buffer":0,
			"byteLength":3432,
			"byteOffset":12288,
			"target":34963
		},
		{
			"buffer":0,
			"byteLength":57600,
			"byteOffset":15720,
			"target":34962
		},
		{
			"buffer":0,
			"byteLength":57600,
			"byteOffset":73320,
			"target":34962
		},
		{
			"buffer":0,
			"byteLength":38400,
			"byteOffset":130920,
			"target":34962
		},
		{
			"buffer":0,
			"byteLength":14568,
			"byteOffset":169320,
			"target":34963
		}
	],
	"samplers":[
		{
			"magFilter":9729,
			"minFilter":9987
		}
	],
	"buffers":[
		{
			"byteLength":183888,
			"uri":"ensps-flag.bin"
		}
	]
}
