{
	"asset":{
		"generator":"Khronos glTF Blender I/O v4.3.47",
		"version":"2.0"
	},
	"scene":0,
	"scenes":[
		{
			"name":"Scene",
			"nodes":[
				0
			]
		}
	],
	"nodes":[
		{
			"mesh":0,
			"name":"Circle",
			"rotation":[
				0.11987043917179108,
				0.05278667062520981,
				0.8152157068252563,
				0.5641524791717529
			],
			"translation":[
				0,
				0.12098541855812073,
				0
			]
		}
	],
	"materials":[
		{
			"doubleSided":true,
			"name":"FU logo",
			"pbrMetallicRoughness":{
				"baseColorTexture":{
					"index":0
				},
				"metallicFactor":0.8888888955116272,
				"roughnessFactor":0.5
			}
		},
		{
			"doubleSided":true,
			"name":"border of coin",
			"pbrMetallicRoughness":{
				"metallicFactor":0.8641975522041321,
				"roughnessFactor":0.4753086566925049
			}
		}
	],
	"meshes":[
		{
			"name":"Circle",
			"primitives":[
				{
					"attributes":{
						"POSITION":0,
						"NORMAL":1,
						"TEXCOORD_0":2
					},
					"indices":3,
					"material":0
				},
				{
					"attributes":{
						"POSITION":4,
						"NORMAL":5,
						"TEXCOORD_0":6
					},
					"indices":7,
					"material":1
				}
			]
		}
	],
	"textures":[
		{
			"sampler":0,
			"source":0
		}
	],
	"images":[
		{
			"mimeType":"image/png",
			"name":"FU-LOGO",
			"uri":"FU-LOGO.png"
		}
	],
	"accessors":[
		{
			"bufferView":0,
			"componentType":5126,
			"count":64,
			"max":[
				0.9344958662986755,
				0.037555575370788574,
				0.9344958662986755
			],
			"min":[
				-0.9344958662986755,
				-0.008902646601200104,
				-0.9344958662986755
			],
			"type":"VEC3"
		},
		{
			"bufferView":1,
			"componentType":5126,
			"count":64,
			"type":"VEC3"
		},
		{
			"bufferView":2,
			"componentType":5126,
			"count":64,
			"type":"VEC2"
		},
		{
			"bufferView":3,
			"componentType":5123,
			"count":180,
			"type":"SCALAR"
		},
		{
			"bufferView":4,
			"componentType":5126,
			"count":512,
			"max":[
				1,
				0.10665883123874664,
				1
			],
			"min":[
				-1,
				-0.12098541855812073,
				-1
			],
			"type":"VEC3"
		},
		{
			"bufferView":5,
			"componentType":5126,
			"count":512,
			"type":"VEC3"
		},
		{
			"bufferView":6,
			"componentType":5126,
			"count":512,
			"type":"VEC2"
		},
		{
			"bufferView":7,
			"componentType":5123,
			"count":960,
			"type":"SCALAR"
		}
	],
	"bufferViews":[
		{
			"buffer":0,
			"byteLength":768,
			"byteOffset":0,
			"target":34962
		},
		{
			"buffer":0,
			"byteLength":768,
			"byteOffset":768,
			"target":34962
		},
		{
			"buffer":0,
			"byteLength":512,
			"byteOffset":1536,
			"target":34962
		},
		{
			"buffer":0,
			"byteLength":360,
			"byteOffset":2048,
			"target":34963
		},
		{
			"buffer":0,
			"byteLength":6144,
			"byteOffset":2408,
			"target":34962
		},
		{
			"buffer":0,
			"byteLength":6144,
			"byteOffset":8552,
			"target":34962
		},
		{
			"buffer":0,
			"byteLength":4096,
			"byteOffset":14696,
			"target":34962
		},
		{
			"buffer":0,
			"byteLength":1920,
			"byteOffset":18792,
			"target":34963
		}
	],
	"samplers":[
		{
			"magFilter":9729,
			"minFilter":9987
		}
	],
	"buffers":[
		{
			"byteLength":20712,
			"uri":"fu-coin.bin"
		}
	]
}
